HIERARCHY
ROOT Hips
{
	OFFSET 0.00000 0.00000 0.00000
	CHANNELS 6 Xposition Yposition Zposition Zrotation Yrotation Xrotation 
	JOINT LHipJoint
	{
		OFFSET 0 0 0
		CHANNELS 3 Zrotation Yrotation Xrotation
		JOINT LeftHip
		{
			OFFSET 1.55020 -1.87941 0.79896
			CHANNELS 3 Zrotation Yrotation Xrotation
			JOINT LeftKnee
			{
				OFFSET 2.65269 -7.28822 0.00000
				CHANNELS 3 Zrotation Yrotation Xrotation
				JOINT LeftAnkle
				{
					OFFSET 2.61200 -7.17641 0.00000
					CHANNELS 3 Zrotation Yrotation Xrotation
					JOINT LeftToe
					{
						OFFSET 0.09338 -0.25656 1.92461
						CHANNELS 3 Zrotation Yrotation Xrotation
						End Site
						{
							OFFSET 0.00000 -0.00000 0.98480
						}
					}
				}
			}
		}
	}
	JOINT RHipJoint
	{
		OFFSET 0 0 0
		CHANNELS 3 Zrotation Yrotation Xrotation
		JOINT RightHip
		{
			OFFSET -1.56866 -1.87941 0.79895
			CHANNELS 3 Zrotation Yrotation Xrotation
			JOINT RightKnee
			{
				OFFSET -2.60199 -7.14892 0.00000
				CHANNELS 3 Zrotation Yrotation Xrotation
				JOINT RightAnkle
				{
					OFFSET -2.62841 -7.22151 0.00000
					CHANNELS 3 Zrotation Yrotation Xrotation
					JOINT RightToe
					{
						OFFSET -0.19532 -0.53663 1.93132
						CHANNELS 3 Zrotation Yrotation Xrotation
						End Site
						{
							OFFSET -0.00000 -0.00000 1.00896
						}
					}
				}
			}
		}
	}
	JOINT lowerback
	{
		OFFSET 0 0 0
		CHANNELS 3 Zrotation Yrotation Xrotation
		JOINT Chest
		{
			OFFSET 0.06381 2.07806 -0.22112
			CHANNELS 3 Zrotation Yrotation Xrotation
			JOINT Chest2
			{
				OFFSET -0.02881 2.08890 0.01825
				CHANNELS 3 Zrotation Yrotation Xrotation
				JOINT lowerneck
				{
					OFFSET 0 0 0
					CHANNELS 3 Zrotation Yrotation Xrotation
					JOINT Neck
					{
						OFFSET 0.02418 1.74325 -0.02023
						CHANNELS 3 Zrotation Yrotation Xrotation
						JOINT Head
						{
							OFFSET -0.01704 1.71677 0.04090
							CHANNELS 3 Zrotation Yrotation Xrotation
							End Site
							{
								OFFSET -0.00946 1.78238 0.01684
							}
						}
					}
				}
				JOINT LeftCollar
				{
					OFFSET 0 0 0
					CHANNELS 3 Zrotation Yrotation Xrotation
					JOINT LeftShoulder
					{
						OFFSET 3.39783 1.34157 0.16610
CHANNELS 3 Zrotation Xrotation Yrotation
						JOINT LeftElbow
						{
OFFSET 0 -5.152180 0.000000
CHANNELS 3 Zrotation Xrotation Yrotation
							JOINT LeftWrist
							{
OFFSET 0 -3.494590 0.000000
CHANNELS 3 Zrotation Xrotation Yrotation
								JOINT lhand
								{
									OFFSET 0 0 0
CHANNELS 3 Zrotation Xrotation Yrotation
									JOINT LFingers
									{
OFFSET 0 -0.512470 0.000000
CHANNELS 3 Zrotation Xrotation Yrotation
										End Site
										{
OFFSET 0 -0.413160 0.000000
										}
									}
								}
								JOINT LThumb
								{
OFFSET 0 0.000000 0.000000
CHANNELS 3 Zrotation Xrotation Yrotation
									End Site
									{
OFFSET 0 -0.419470 0.419470
									}
								}
							}
						}
					}
				}
				JOINT RightCollar
				{
					OFFSET 0 0 0
					CHANNELS 3 Zrotation Yrotation Xrotation
					JOINT RightShoulder
					{
						OFFSET -3.26224 1.05509 0.01188
CHANNELS 3 Zrotation Xrotation Yrotation
						JOINT RightElbow
						{
OFFSET 0 -5.443440 0.000000
CHANNELS 3 Zrotation Xrotation Yrotation
							JOINT RightWrist
							{
OFFSET 0 -3.584030 0.000000
CHANNELS 3 Zrotation Xrotation Yrotation
								JOINT rhand
								{
									OFFSET 0 0 0
CHANNELS 3 Zrotation Xrotation Yrotation
									JOINT RFingers
									{
OFFSET 0 -0.342490 0.000000
CHANNELS 3 Zrotation Xrotation Yrotation
										End Site
										{
OFFSET 0 -0.276120 0.000000
										}
									}
								}
								JOINT RThumb
								{
OFFSET 0 0.000000 0.000000
CHANNELS 3 Zrotation Xrotation Yrotation
									End Site
									{
OFFSET 0 -0.280340 0.280340
									}
								}
							}
						}
					}
				}
			}
		}
	}
}
MOTION
Frames: 5
Frame Time: 0.008333333333333333
2.979550 17.177526 -0.105333 48.312712 -101.607699 -51.700193 0.000000 0.000000 0.000000 -10.002658 -8.614243 -30.742564 3.718942 11.772924 34.938258 0.164575 -0.775516 -7.406139 2.362393 -9.264136 -26.885788 0.000000 0.000000 0.000000 28.362040 -6.848083 30.049178 0.000000 0.000000 0.000000 -0.271803 2.850931 -9.223095 -3.195077 10.995776 -32.275006 10.452520 2.105400 8.787510 -0.113905 3.712896 1.404413 -6.383247 1.730729 -2.777640 5.219120 -0.052168 0.775048 -3.913791 -0.072642 -2.001906 -2.125998 -0.041243 -0.763345 0.000000 0.000000 0.000000 2.336120 31.937947 68.374970 5.466911 -9.370138 0.448414 22.571394 75.028834 -19.122917 0.000000 0.000000 0.000000 -7.125000 0.000000 0.000000 -5.690776 50.475180 0.768358 0.000000 0.000000 0.000000 -5.454051 -27.777160 52.645852 -32.927171 -43.268353 -13.374043 -23.534925 28.571183 36.348144 0.000000 0.000000 0.000000 7.125000 0.000000 0.000000 14.471343 68.216938 -8.132394
2.799652 17.188206 -0.100865 48.050049 -101.324933 -51.334375 0.000000 0.000000 0.000000 -10.280378 -8.937703 -30.805316 3.864373 11.976172 35.649854 0.138560 -0.363869 -6.899047 1.462572 -7.563069 -21.428625 0.000000 0.000000 0.000000 28.137546 -6.643133 30.141398 -0.023005 -0.290252 0.801680 -0.239848 2.634272 -8.705990 -3.387495 11.294738 -33.283577 10.136664 2.110054 8.642649 -0.318271 3.682983 1.256298 -6.417455 1.711802 -2.866359 5.307464 -0.102402 0.782182 -3.595028 -0.127630 -1.824923 -2.035992 -0.070448 -0.710554 0.000000 0.000000 0.000000 2.467550 32.023480 69.509264 5.407747 -9.270844 0.438779 22.322798 75.952296 -18.839709 0.000000 0.000000 0.000000 -7.125000 0.000000 0.000000 -5.857922 50.135480 0.743145 0.000000 0.000000 0.000000 -5.148071 -26.851093 52.390122 -33.396496 -43.632126 -13.695041 -23.744649 28.761293 36.413874 0.000000 0.000000 0.000000 7.125000 0.000000 0.000000 14.276113 68.344482 -8.062163
2.619420 17.188677 -0.096275 47.464981 -100.983222 -50.664291 0.000000 0.000000 0.000000 -10.711264 -9.186905 -30.741093 4.018555 12.180453 36.379923 0.112667 0.108485 -6.345012 1.017719 -6.117014 -17.219575 0.000000 0.000000 0.000000 28.050843 -6.009221 28.855097 -0.125008 -1.577221 4.356301 -0.274647 2.547687 -9.320050 -3.576358 11.566263 -34.224362 9.778240 2.130690 8.551081 -0.577085 3.675372 1.084697 -6.490858 1.701170 -3.003632 5.358741 -0.166703 0.767470 -3.174814 -0.203583 -1.578938 -1.906487 -0.109680 -0.632757 0.000000 0.000000 0.000000 2.731150 32.001667 70.917773 5.345878 -9.166840 0.428932 21.986697 77.374693 -18.726681 0.000000 0.000000 0.000000 -7.125000 0.000000 0.000000 -6.155536 49.962467 0.753541 0.000000 0.000000 0.000000 -4.763519 -25.871154 52.133937 -33.639460 -43.814476 -13.863268 -24.020215 28.910689 36.485590 0.000000 0.000000 0.000000 7.125000 0.000000 0.000000 14.000822 68.498703 -7.952039
2.439188 17.189148 -0.091684 46.879913 -100.641511 -49.994208 0.000000 0.000000 0.000000 -11.142150 -9.436107 -30.676870 4.172737 12.384735 37.109992 0.086774 0.580839 -5.790977 0.572867 -4.670960 -13.010525 0.000000 0.000000 0.000000 27.964140 -5.375310 27.568795 -0.227012 -2.864189 7.910921 -0.309446 2.461102 -9.934110 -3.765221 11.837788 -35.165146 9.419816 2.151326 8.459513 -0.835898 3.667761 0.913096 -6.564261 1.690538 -3.140905 5.410017 -0.231005 0.752758 -2.754599 -0.279536 -1.332953 -1.776982 -0.148912 -0.554960 0.000000 0.000000 0.000000 2.994751 31.979854 72.326282 5.284009 -9.062835 0.419085 21.650596 78.797091 -18.613654 0.000000 0.000000 0.000000 -7.125000 0.000000 0.000000 -6.453150 49.789453 0.763938 0.000000 0.000000 0.000000 -4.378966 -24.891216 51.877751 -33.882424 -43.996827 -14.031495 -24.295781 29.060085 36.557307 0.000000 0.000000 0.000000 7.125000 0.000000 0.000000 13.725530 68.652924 -7.841915
2.261371 17.190017 -0.086670 45.933021 -100.248994 -48.995825 0.000000 0.000000 0.000000 -11.751970 -9.589590 -30.426758 4.308126 12.557322 37.736645 0.084399 0.583545 -5.731992 0.485725 -4.448967 -12.346591 0.000000 0.000000 0.000000 27.789045 -4.828198 26.521658 -0.415045 -3.965188 11.003246 -0.305517 2.343911 -9.883688 -3.935848 12.070585 -35.987703 8.970345 2.178492 8.376466 -1.087519 3.656726 0.776003 -6.576825 1.681844 -3.252483 5.420548 -0.279379 0.692682 -2.344817 -0.341846 -1.068944 -1.645195 -0.180154 -0.463360 0.000000 0.000000 0.000000 3.242265 31.777063 74.048066 5.231112 -8.973829 0.410804 21.263318 80.700470 -18.557988 0.000000 0.000000 0.000000 -7.125000 0.000000 0.000000 -6.814232 49.669581 0.786677 0.000000 0.000000 0.000000 -4.047820 -23.768682 51.526378 -34.158542 -44.200386 -14.223930 -24.445155 29.149225 36.534419 0.000000 0.000000 0.000000 7.125000 0.000000 0.000000 13.508318 68.677132 -7.724358
